<svg width="240" height="159" viewBox="0 0 240 159" fill="none" xmlns="http://www.w3.org/2000/svg">
<g clip-path="url(#clip0_1_953)">
<path d="M45.6044 127.714C47.6007 128.758 49.1757 130.313 50.3193 132.369C51.463 134.426 52.0348 136.914 52.0348 139.823V158.743H45.4539V140.816C45.4539 137.947 44.7317 135.74 43.2971 134.205C41.8626 132.67 39.8963 131.908 37.4185 131.908C34.9406 131.908 32.9644 132.67 31.5098 134.205C30.0552 135.74 29.3229 137.937 29.3229 140.816V158.743H22.742V140.816C22.742 137.947 22.0197 135.74 20.5852 134.205C19.1506 132.67 17.1844 131.908 14.7066 131.908C12.2287 131.908 10.2525 132.67 8.79786 134.205C7.34325 135.74 6.61094 137.937 6.61094 140.816V158.743H0V126.671H6.631V130.343C7.71443 129.029 9.09881 127.995 10.7641 127.253C12.4294 126.521 14.215 126.149 16.1211 126.149C18.6792 126.149 20.9764 126.691 22.9928 127.775C25.0092 128.858 26.5641 130.433 27.6476 132.49C28.6206 130.553 30.1354 129.009 32.1919 127.865C34.2485 126.721 36.4554 126.149 38.833 126.149C41.3509 126.149 43.6181 126.671 45.6144 127.724L45.6044 127.714Z" fill="white"/>
<path d="M59.378 121.194C58.5654 120.381 58.1541 119.368 58.1541 118.164C58.1541 116.96 58.5654 115.947 59.378 115.135C60.1906 114.322 61.2038 113.911 62.4076 113.911C63.6114 113.911 64.5644 114.322 65.377 115.135C66.1896 115.947 66.6009 116.96 66.6009 118.164C66.6009 119.368 66.1896 120.371 65.377 121.194C64.5644 122.016 63.5713 122.418 62.4076 122.418C61.2439 122.418 60.2006 122.006 59.378 121.194ZM65.6579 126.671V158.743H59.0269V126.671H65.6579Z" fill="white"/>
<path d="M95.9037 127.714C97.9 128.758 99.465 130.313 100.589 132.369C101.712 134.426 102.274 136.914 102.274 139.823V158.743H95.693V140.816C95.693 137.947 94.9708 135.74 93.5362 134.205C92.1017 132.67 90.1354 131.908 87.6576 131.908C85.1798 131.908 83.2035 132.67 81.7489 134.205C80.2943 135.74 79.562 137.937 79.562 140.816V158.743H72.931V126.671H79.562V130.343C80.6454 129.029 82.0398 127.995 83.7251 127.253C85.4105 126.521 87.2062 126.149 89.1122 126.149C91.6302 126.149 93.8974 126.671 95.8937 127.724L95.9037 127.714Z" fill="white"/>
<path d="M109.607 121.194C108.794 120.381 108.383 119.368 108.383 118.164C108.383 116.96 108.794 115.947 109.607 115.135C110.42 114.322 111.433 113.911 112.637 113.911C113.84 113.911 114.793 114.322 115.606 115.135C116.419 115.947 116.83 116.96 116.83 118.164C116.83 119.368 116.419 120.371 115.606 121.194C114.793 122.016 113.8 122.418 112.637 122.418C111.473 122.418 110.42 122.006 109.607 121.194ZM115.897 126.671V158.743H109.256V126.671H115.897Z" fill="white"/>
<path d="M168.774 127.714C170.771 128.758 172.346 130.313 173.489 132.369C174.633 134.426 175.205 136.914 175.205 139.823V158.743H168.624V140.816C168.624 137.947 167.902 135.74 166.467 134.205C165.033 132.67 163.066 131.908 160.589 131.908C158.111 131.908 156.134 132.67 154.68 134.205C153.225 135.74 152.493 137.937 152.493 140.816V158.743H145.912V140.816C145.912 137.947 145.19 135.74 143.755 134.205C142.321 132.67 140.364 131.908 137.877 131.908C135.389 131.908 133.423 132.67 131.968 134.205C130.513 135.74 129.781 137.937 129.781 140.816V158.743H123.14V126.671H129.781V130.343C130.864 129.029 132.249 127.995 133.914 127.253C135.579 126.521 137.365 126.149 139.271 126.149C141.829 126.149 144.116 126.691 146.143 127.775C148.169 128.858 149.714 130.433 150.798 132.49C151.771 130.553 153.285 129.009 155.342 127.865C157.398 126.721 159.605 126.149 161.973 126.149C164.491 126.149 166.758 126.671 168.754 127.724L168.774 127.714Z" fill="white"/>
<path d="M182.538 121.194C181.725 120.381 181.314 119.368 181.314 118.164C181.314 116.96 181.725 115.947 182.538 115.135C183.351 114.322 184.364 113.911 185.568 113.911C186.771 113.911 187.724 114.322 188.537 115.135C189.35 115.947 189.761 116.96 189.761 118.164C189.761 119.368 189.35 120.371 188.537 121.194C187.724 122.016 186.731 122.418 185.568 122.418C184.404 122.418 183.351 122.006 182.538 121.194ZM188.828 126.671V158.743H182.187V126.671H188.828Z" fill="white"/>
<path d="M219.074 127.714C221.07 128.758 222.635 130.313 223.759 132.369C224.882 134.426 225.444 136.914 225.444 139.823V158.743H218.863V140.816C218.863 137.947 218.141 135.74 216.706 134.205C215.272 132.67 213.305 131.908 210.828 131.908C208.35 131.908 206.374 132.67 204.919 134.205C203.464 135.74 202.732 137.937 202.732 140.816V158.743H196.101V126.671H202.732V130.343C203.815 129.029 205.21 127.995 206.895 127.253C208.581 126.521 210.376 126.149 212.282 126.149C214.8 126.149 217.067 126.671 219.064 127.724L219.074 127.714Z" fill="white"/>
<path d="M232.777 121.194C231.965 120.381 231.553 119.368 231.553 118.164C231.553 116.96 231.965 115.947 232.777 115.135C233.59 114.322 234.603 113.911 235.807 113.911C237.011 113.911 237.964 114.322 238.776 115.135C239.589 115.947 240 116.96 240 118.164C240 119.368 239.589 120.371 238.776 121.194C237.964 122.016 236.97 122.418 235.807 122.418C234.643 122.418 233.6 122.006 232.777 121.194ZM239.067 126.671V158.743H232.436V126.671H239.067Z" fill="white"/>
<path d="M139.763 0H99.2944C85.7816 0 74.8269 10.9547 74.8269 24.4675V64.9356C74.8269 78.4484 85.7816 89.4031 99.2944 89.4031H125.457V105.293C125.457 107.26 127.825 108.253 129.229 106.878L148.912 87.6275C157.89 84.006 164.23 75.2082 164.23 64.9356V24.4675C164.23 10.9547 153.275 0 139.763 0Z" fill="white"/>
<path d="M117.994 41.7522H91.0483C91.0483 56.6293 103.117 68.6975 117.994 68.6975V41.7522Z" fill="#0066FF"/>
<path d="M121.073 41.7522H148.019C148.019 56.6293 135.951 68.6975 121.073 68.6975V41.7522Z" fill="#0066FF"/>
<path d="M106.056 38.4217C110.948 38.4217 114.914 34.4558 114.914 29.5636C114.914 24.6715 110.948 20.7056 106.056 20.7056C101.164 20.7056 97.1978 24.6715 97.1978 29.5636C97.1978 34.4558 101.164 38.4217 106.056 38.4217Z" fill="#0066FF"/>
<path d="M132.49 38.4217C137.382 38.4217 141.348 34.4558 141.348 29.5636C141.348 24.6715 137.382 20.7056 132.49 20.7056C127.597 20.7056 123.631 24.6715 123.631 29.5636C123.631 34.4558 127.597 38.4217 132.49 38.4217Z" fill="#0066FF"/>
</g>
<defs>
<clipPath id="clip0_1_953">
<rect width="239.24" height="158.24" fill="white" transform="scale(1.00318)"/>
</clipPath>
</defs>
</svg>
