<svg width="219" height="69" viewBox="0 0 219 69" fill="none" xmlns="http://www.w3.org/2000/svg">
<g clip-path="url(#clip0_1_981)">
<path d="M93.8627 20.1567C95.1477 20.8262 96.1616 21.824 96.8978 23.1438C97.634 24.4635 98.002 26.0601 98.002 27.927V40.0687H93.7658V28.5644C93.7658 26.7232 93.3008 25.3069 92.3774 24.3219C91.4539 23.3369 90.1947 22.8476 88.5932 22.8476C86.9917 22.8476 85.726 23.3369 84.7896 24.3219C83.8532 25.3069 83.3818 26.7167 83.3818 28.5644V40.0687H79.1456V28.5644C79.1456 26.7232 78.6806 25.3069 77.7572 24.3219C76.8337 23.3369 75.568 22.8476 73.9729 22.8476C72.3779 22.8476 71.1057 23.3369 70.1694 24.3219C69.233 25.3069 68.7616 26.7167 68.7616 28.5644V40.0687H64.493V19.4871H68.7616V21.8433C69.459 21 70.3502 20.3369 71.4222 19.8605C72.4941 19.3906 73.6436 19.1524 74.8706 19.1524C76.5173 19.1524 77.9896 19.5 79.2941 20.1953C80.5921 20.8906 81.593 21.9013 82.2905 23.221C82.9169 21.9785 83.892 20.9871 85.2158 20.2532C86.5396 19.5193 87.9603 19.1524 89.4843 19.1524C91.1052 19.1524 92.5647 19.4871 93.8497 20.1631L93.8627 20.1567Z" fill="white"/>
<path d="M102.729 15.9721C102.206 15.4506 101.941 14.8004 101.941 14.0279C101.941 13.2554 102.206 12.6051 102.729 12.0837C103.252 11.5622 103.904 11.2983 104.679 11.2983C105.454 11.2983 106.068 11.5622 106.591 12.0837C107.114 12.6051 107.379 13.2554 107.379 14.0279C107.379 14.8004 107.114 15.4442 106.591 15.9721C106.068 16.5 105.428 16.7575 104.679 16.7575C103.93 16.7575 103.259 16.4936 102.729 15.9721ZM106.772 19.4871V40.0687H102.497V19.4871H106.772Z" fill="white"/>
<path d="M126.242 20.1567C127.527 20.8262 128.534 21.824 129.257 23.1438C129.981 24.4635 130.342 26.0601 130.342 27.927V40.0687H126.106V28.5644C126.106 26.7232 125.641 25.3069 124.718 24.3219C123.794 23.3369 122.528 22.8476 120.933 22.8476C119.338 22.8476 118.066 23.3369 117.13 24.3219C116.193 25.3069 115.722 26.7167 115.722 28.5644V40.0687H111.453V19.4871H115.722V21.8433C116.419 21 117.317 20.3369 118.402 19.8605C119.487 19.3906 120.643 19.1524 121.87 19.1524C123.491 19.1524 124.95 19.4871 126.235 20.1631L126.242 20.1567Z" fill="white"/>
<path d="M135.063 15.9721C134.54 15.4506 134.275 14.8004 134.275 14.0279C134.275 13.2554 134.54 12.6051 135.063 12.0837C135.586 11.5622 136.238 11.2983 137.013 11.2983C137.788 11.2983 138.401 11.5622 138.925 12.0837C139.448 12.6051 139.712 13.2554 139.712 14.0279C139.712 14.8004 139.448 15.4442 138.925 15.9721C138.401 16.5 137.762 16.7575 137.013 16.7575C136.264 16.7575 135.586 16.4936 135.063 15.9721ZM139.112 19.4871V40.0687H134.843V19.4871H139.112Z" fill="white"/>
<path d="M173.15 20.1567C174.435 20.8262 175.449 21.824 176.185 23.1438C176.922 24.4635 177.29 26.0601 177.29 27.927V40.0687H173.053V28.5644C173.053 26.7232 172.588 25.3069 171.665 24.3219C170.742 23.3369 169.476 22.8476 167.881 22.8476C166.286 22.8476 165.014 23.3369 164.077 24.3219C163.141 25.3069 162.669 26.7167 162.669 28.5644V40.0687H158.433V28.5644C158.433 26.7232 157.968 25.3069 157.045 24.3219C156.121 23.3369 154.862 22.8476 153.261 22.8476C151.659 22.8476 150.393 23.3369 149.457 24.3219C148.521 25.3069 148.049 26.7167 148.049 28.5644V40.0687H143.774V19.4871H148.049V21.8433C148.747 21 149.638 20.3369 150.71 19.8605C151.782 19.3906 152.931 19.1524 154.158 19.1524C155.805 19.1524 157.277 19.5 158.582 20.1953C159.886 20.8906 160.881 21.9013 161.578 23.221C162.205 21.9785 163.173 20.9871 164.503 20.2532C165.827 19.5193 167.254 19.1524 168.778 19.1524C170.399 19.1524 171.859 19.4871 173.144 20.1631L173.15 20.1567Z" fill="white"/>
<path d="M182.017 15.9721C181.494 15.4506 181.229 14.8004 181.229 14.0279C181.229 13.2554 181.494 12.6051 182.017 12.0837C182.54 11.5622 183.192 11.2983 183.967 11.2983C184.742 11.2983 185.355 11.5622 185.878 12.0837C186.402 12.6051 186.666 13.2554 186.666 14.0279C186.666 14.8004 186.402 15.4442 185.878 15.9721C185.355 16.5 184.716 16.7575 183.967 16.7575C183.218 16.7575 182.54 16.4936 182.017 15.9721ZM186.059 19.4871V40.0687H181.791V19.4871H186.059Z" fill="white"/>
<path d="M205.529 20.1567C206.814 20.8262 207.822 21.824 208.545 23.1438C209.268 24.4635 209.63 26.0601 209.63 27.927V40.0687H205.394V28.5644C205.394 26.7232 204.929 25.3069 204.005 24.3219C203.082 23.3369 201.822 22.8476 200.221 22.8476C198.619 22.8476 197.354 23.3369 196.417 24.3219C195.481 25.3069 195.01 26.7167 195.01 28.5644V40.0687H190.735V19.4871H195.01V21.8433C195.707 21 196.605 20.3369 197.69 19.8605C198.774 19.3906 199.93 19.1524 201.157 19.1524C202.778 19.1524 204.238 19.4871 205.523 20.1631L205.529 20.1567Z" fill="white"/>
<path d="M214.35 15.9721C213.827 15.4506 213.563 14.8004 213.563 14.0279C213.563 13.2554 213.827 12.6051 214.35 12.0837C214.874 11.5622 215.526 11.2983 216.301 11.2983C217.076 11.2983 217.689 11.5622 218.212 12.0837C218.735 12.6051 219 13.2554 219 14.0279C219 14.8004 218.735 15.4442 218.212 15.9721C217.689 16.5 217.05 16.7575 216.301 16.7575C215.552 16.7575 214.88 16.4936 214.35 15.9721ZM218.399 19.4871V40.0687H214.124V19.4871H218.399Z" fill="white"/>
<path d="M41.8072 0H15.7503C7.05181 0 0 7.03004 0 15.7017V41.6717C0 50.3433 7.05181 57.3734 15.7503 57.3734H32.592V67.5708C32.592 68.8326 34.116 69.47 35.0201 68.588L47.6901 56.2339C53.4698 53.9099 57.551 48.264 57.551 41.6717V15.7017C57.551 7.03004 50.4992 0 41.8007 0H41.8072Z" fill="white"/>
<path d="M27.7875 26.794H10.4421C10.4421 36.3412 18.2107 44.0858 27.7875 44.0858V26.794Z" fill="#0066FF"/>
<path d="M29.77 26.794H47.1153C47.1153 36.3412 39.3467 44.0858 29.77 44.0858V26.794Z" fill="#0066FF"/>
<path d="M20.1093 24.6567C23.2585 24.6567 25.8114 22.1116 25.8114 18.9721C25.8114 15.8326 23.2585 13.2876 20.1093 13.2876C16.96 13.2876 14.4071 15.8326 14.4071 18.9721C14.4071 22.1116 16.96 24.6567 20.1093 24.6567Z" fill="#0066FF"/>
<path d="M37.1188 24.6567C40.268 24.6567 42.821 22.1116 42.821 18.9721C42.821 15.8326 40.268 13.2876 37.1188 13.2876C33.9696 13.2876 31.4167 15.8326 31.4167 18.9721C31.4167 22.1116 33.9696 24.6567 37.1188 24.6567Z" fill="#0066FF"/>
</g>
<defs>
<clipPath id="clip0_1_981">
<rect width="219" height="69" fill="white"/>
</clipPath>
</defs>
</svg>
